<svg width="774" height="555" viewBox="0 0 774 555" fill="none" xmlns="http://www.w3.org/2000/svg">
<path d="M556.386 101.137C545.055 101.137 534.504 104.442 525.547 110.063L497.192 70.7608C505.631 63.3361 511.072 52.5857 511.072 40.488C511.072 18.1638 492.911 0 470.589 0C448.268 0 430.106 18.1638 430.106 40.488C430.106 56.6862 439.729 70.5889 453.504 77.056L442.24 108.764L392.041 87.2411C394.231 81.0425 395.403 74.5665 395.403 67.9034C395.403 35.7775 369.268 9.63965 337.142 9.63965C305.016 9.63965 278.881 35.7775 278.881 67.9034C278.881 75.8736 280.497 83.4713 283.407 90.3967L234.06 115.017C226.897 103.591 214.287 95.9179 199.836 95.9179C177.515 95.9179 159.353 114.082 159.353 136.406C159.353 158.73 177.515 176.89 199.836 176.89C201.238 176.89 202.565 176.616 203.931 176.476L213.391 223.71C188.629 230.421 170.333 253.032 170.333 279.893C170.333 312.019 196.468 338.157 228.586 338.157C245.054 338.157 259.916 331.259 270.523 320.237L307.083 351.009C302.56 357.543 299.876 365.441 299.876 373.972C299.876 396.296 318.038 414.46 340.36 414.46C362.681 414.46 380.836 396.296 380.836 373.972C380.836 358.772 372.32 345.661 359.902 338.74L375.861 302.094C384.687 305.454 394.215 307.376 404.205 307.376C448.328 307.376 484.229 271.47 484.229 227.338C484.229 217.48 482.352 208.073 479.078 199.344L505.643 187.921C514.157 203.014 529.193 213.907 546.904 216.826L542.508 261.894C542.486 261.894 542.466 261.887 542.445 261.887C520.123 261.887 501.961 280.047 501.961 302.372C501.961 324.696 520.123 342.86 542.445 342.86C564.766 342.86 582.921 324.696 582.921 302.372C582.921 282.7 568.813 266.3 550.191 262.671L554.59 217.578C555.192 217.596 555.78 217.668 556.386 217.668C588.512 217.668 614.647 191.531 614.647 159.401C614.647 127.275 588.512 101.137 556.386 101.137ZM575.204 302.372C575.204 320.441 560.509 335.142 542.445 335.142C524.381 335.142 509.678 320.441 509.678 302.372C509.678 284.306 524.381 269.605 542.445 269.605C560.509 269.605 575.204 284.306 575.204 302.372ZM437.823 40.488C437.823 22.4184 452.525 7.71775 470.589 7.71775C488.653 7.71775 503.356 22.4184 503.356 40.488C503.356 58.5539 488.653 73.2546 470.589 73.2546C452.525 73.2546 437.823 58.5539 437.823 40.488ZM460.772 79.6293C463.932 80.424 467.186 80.9723 470.589 80.9723C478.04 80.9723 484.938 78.8074 490.941 75.2811L519.265 114.54C512.592 120.074 507.219 127.09 503.538 135.046L449.341 111.808L460.772 79.6293ZM404.205 147.304C360.081 147.304 324.18 183.206 324.18 227.338C324.18 233.966 325.079 240.372 326.604 246.534L283.109 259.548C278.458 247.128 269.71 236.731 258.487 229.981L314.091 121.391C321.167 124.452 328.955 126.167 337.142 126.167C359.171 126.167 379.008 113.726 388.913 94.298L439.651 116.051L427.327 150.742C420.001 148.525 412.245 147.304 404.205 147.304ZM337.142 17.3574C365.01 17.3574 387.686 40.0321 387.686 67.9034C387.686 74.8185 386.314 81.5225 383.609 87.8271C375.621 106.428 357.384 118.449 337.142 118.449C309.274 118.449 286.598 95.7747 286.598 67.9034C286.598 40.0321 309.274 17.3574 337.142 17.3574ZM167.07 136.406C167.07 118.336 181.773 103.636 199.836 103.636C217.9 103.636 232.595 118.336 232.595 136.406C232.595 154.472 217.9 169.173 199.836 169.173C181.773 169.173 167.07 154.472 167.07 136.406ZM211.5 174.973C228.112 169.928 240.312 154.648 240.312 136.406C240.312 131.287 239.258 126.431 237.518 121.918L286.91 97.275C291.863 105.713 298.865 112.778 307.245 117.818L251.642 226.408C244.565 223.345 236.775 221.629 228.586 221.629C225.994 221.629 223.46 221.859 220.956 222.188L211.5 174.973ZM228.586 330.439C200.718 330.439 178.05 307.764 178.05 279.893C178.05 252.022 200.718 229.347 228.586 229.347C256.454 229.347 279.13 252.022 279.13 279.893C279.13 307.764 256.454 330.439 228.586 330.439ZM373.119 373.972C373.119 392.041 358.424 406.742 340.36 406.742C322.296 406.742 307.593 392.041 307.593 373.972C307.593 355.906 322.296 341.205 340.36 341.205C358.424 341.205 373.119 355.906 373.119 373.972ZM352.834 335.657C348.881 334.365 344.74 333.488 340.36 333.488C329.342 333.488 319.361 337.939 312.054 345.105L275.48 314.321C282.59 304.662 286.847 292.779 286.847 279.893C286.847 275.435 286.297 271.11 285.344 266.936L328.817 253.929C335.792 273.644 350.247 289.799 368.795 299.005L352.834 335.657ZM404.205 299.658C364.332 299.658 331.897 267.216 331.897 227.338C331.897 187.464 364.332 155.022 404.205 155.022C444.078 155.022 476.512 187.464 476.512 227.338C476.512 267.216 444.078 299.658 404.205 299.658ZM476.021 192.257C467.434 174.749 452.704 160.802 434.589 153.335L446.752 119.096L500.72 142.235C499.043 147.664 498.133 153.428 498.133 159.401C498.133 167.017 499.643 174.277 502.312 180.952L476.021 192.257ZM556.386 209.951C528.518 209.951 505.85 187.272 505.85 159.401C505.85 131.53 528.518 108.855 556.386 108.855C584.254 108.855 606.93 131.53 606.93 159.401C606.93 187.272 584.254 209.951 556.386 209.951Z" fill="url(#paint0_linear)"/>
<path d="M9.11505 505.456C9.77556 505.456 10.337 505.687 10.7994 506.149C11.2617 506.612 11.4929 507.173 11.4929 507.834V512.656C11.4929 513.317 11.2617 513.878 10.7994 514.341C10.337 514.803 9.77556 515.034 9.11505 515.034H2.31179C1.69531 515.034 1.15589 514.803 0.693537 514.341C0.231179 513.878 0 513.317 0 512.656V507.834C0 507.173 0.231179 506.612 0.693537 506.149C1.15589 505.687 1.69531 505.456 2.31179 505.456H9.11505ZM38.6399 505.456C39.2564 505.456 39.7958 505.687 40.2581 506.149C40.7205 506.612 40.9517 507.173 40.9517 507.834V512.656C40.9517 513.317 40.7205 513.878 40.2581 514.341C39.7958 514.803 39.2564 515.034 38.6399 515.034H25.3636V552.556C25.3636 553.172 25.1324 553.712 24.6701 554.174C24.2077 554.637 23.6683 554.868 23.0518 554.868H17.9659C17.3054 554.868 16.744 554.637 16.2816 554.174C15.8192 553.712 15.5881 553.172 15.5881 552.556V507.834C15.5881 507.173 15.8192 506.612 16.2816 506.149C16.744 505.687 17.3054 505.456 17.9659 505.456H38.6399ZM87.9669 544.959C88.6274 544.959 89.1778 545.19 89.6181 545.653C90.0585 546.115 90.2786 546.677 90.2786 547.337V552.159C90.2786 552.776 90.0585 553.315 89.6181 553.778C89.1778 554.24 88.6274 554.471 87.9669 554.471H55.3376C54.7211 554.471 54.1817 554.24 53.7194 553.778C53.257 553.315 53.0258 552.776 53.0258 552.159V547.337C53.0258 546.677 53.257 546.115 53.7194 545.653C54.1817 545.19 54.7211 544.959 55.3376 544.959H87.9669ZM55.3376 534.72C54.7211 534.72 54.1817 534.489 53.7194 534.026C53.257 533.564 53.0258 533.024 53.0258 532.408V527.453C53.0258 526.837 53.257 526.297 53.7194 525.835C54.1817 525.373 54.7211 525.141 55.3376 525.141H84.9946C85.6551 525.141 86.2165 525.373 86.6789 525.835C87.1412 526.297 87.3724 526.837 87.3724 527.453V532.408C87.3724 533.024 87.1412 533.564 86.6789 534.026C86.2165 534.489 85.6551 534.72 84.9946 534.72H55.3376ZM87.9669 505.456C88.6274 505.456 89.1778 505.687 89.6181 506.149C90.0585 506.612 90.2786 507.151 90.2786 507.768V512.59C90.2786 513.251 90.0585 513.812 89.6181 514.275C89.1778 514.737 88.6274 514.968 87.9669 514.968H55.3376C54.7211 514.968 54.1817 514.737 53.7194 514.275C53.257 513.812 53.0258 513.251 53.0258 512.59V507.768C53.0258 507.151 53.257 506.612 53.7194 506.149C54.1817 505.687 54.7211 505.456 55.3376 505.456H87.9669ZM147.532 551.235C147.84 551.939 147.763 552.655 147.301 553.382C146.838 554.108 146.211 554.471 145.418 554.471H101.428C101.032 554.471 100.657 554.372 100.305 554.174C99.9529 553.976 99.6887 553.723 99.5126 553.415C99.0282 552.71 98.9622 551.983 99.3144 551.235L101.362 546.412C101.538 545.972 101.824 545.62 102.221 545.355C102.617 545.091 103.035 544.959 103.476 544.959H134.255L123.423 519.064L114.572 540.203C114.396 540.643 114.121 540.984 113.747 541.227C113.372 541.469 112.943 541.59 112.459 541.59H106.91C106.074 541.59 105.413 541.238 104.929 540.533C104.753 540.225 104.643 539.872 104.599 539.476C104.554 539.08 104.599 538.705 104.731 538.353L118.139 506.909C118.315 506.469 118.59 506.116 118.965 505.852C119.339 505.588 119.768 505.456 120.253 505.456H126.594C127.078 505.456 127.507 505.588 127.882 505.852C128.256 506.116 128.531 506.469 128.707 506.909L147.532 551.235ZM204.587 505.456C205.203 505.456 205.743 505.687 206.205 506.149C206.667 506.612 206.898 507.151 206.898 507.768V552.027C206.898 552.644 206.667 553.183 206.205 553.646C205.743 554.108 205.203 554.339 204.587 554.339H199.567C198.906 554.339 198.356 554.108 197.916 553.646C197.475 553.183 197.255 552.644 197.255 552.027V522.169L185.036 537.891C184.551 538.463 183.935 538.75 183.186 538.75C182.834 538.75 182.482 538.672 182.129 538.518C181.777 538.364 181.513 538.133 181.337 537.825L159.672 509.155C159.408 508.847 159.254 508.462 159.21 507.999C159.166 507.537 159.254 507.118 159.474 506.744C159.694 506.37 159.98 506.061 160.332 505.819C160.685 505.577 161.081 505.456 161.521 505.456H167.334C168.082 505.456 168.699 505.764 169.183 506.381L183.186 524.877L196.859 506.381C197.343 505.764 197.982 505.456 198.774 505.456H204.587ZM166.541 537.494C167.158 537.494 167.697 537.715 168.16 538.155C168.622 538.595 168.853 539.146 168.853 539.806V552.027C168.853 552.644 168.622 553.183 168.16 553.646C167.697 554.108 167.158 554.339 166.541 554.339H161.521C160.905 554.339 160.365 554.108 159.903 553.646C159.441 553.183 159.21 552.644 159.21 552.027V539.806C159.21 539.146 159.441 538.595 159.903 538.155C160.365 537.715 160.905 537.494 161.521 537.494H166.541ZM245.38 522.367C244.763 522.367 244.224 522.136 243.762 521.673C243.299 521.211 243.068 520.671 243.068 520.055V507.768C243.068 507.151 243.299 506.612 243.762 506.149C244.224 505.687 244.763 505.456 245.38 505.456H250.4C251.06 505.456 251.611 505.687 252.051 506.149C252.491 506.612 252.712 507.151 252.712 507.768V520.055C252.712 520.671 252.491 521.211 252.051 521.673C251.611 522.136 251.06 522.367 250.4 522.367H245.38ZM281.246 505.456C281.862 505.456 282.402 505.687 282.864 506.149C283.326 506.612 283.557 507.151 283.557 507.768V552.159C283.557 552.776 283.326 553.315 282.864 553.778C282.402 554.24 281.862 554.471 281.246 554.471H276.226C275.565 554.471 275.015 554.24 274.574 553.778C274.134 553.315 273.914 552.776 273.914 552.159V534.72H252.712V552.159C252.712 552.776 252.491 553.315 252.051 553.778C251.611 554.24 251.06 554.471 250.4 554.471H245.38C244.763 554.471 244.224 554.24 243.762 553.778C243.299 553.315 243.068 552.776 243.068 552.159V527.453C243.068 526.837 243.299 526.297 243.762 525.835C244.224 525.373 244.763 525.141 245.38 525.141H273.914V507.768C273.914 507.151 274.134 506.612 274.574 506.149C275.015 505.687 275.565 505.456 276.226 505.456H281.246ZM319.212 505.984C319.74 506.425 320.004 507.019 320.004 507.768V512.722C320.004 513.295 319.839 513.79 319.509 514.209C319.179 514.627 318.727 514.902 318.155 515.034C315.337 515.607 312.937 516.95 310.955 519.064C308.269 521.882 306.926 525.549 306.926 530.063C306.926 534.577 308.269 538.265 310.955 541.128C312.937 543.197 315.337 544.519 318.155 545.091C318.727 545.223 319.179 545.498 319.509 545.917C319.839 546.335 320.004 546.831 320.004 547.403V552.358C320.004 553.062 319.74 553.657 319.212 554.141C318.727 554.493 318.221 554.67 317.693 554.67H317.296C312.188 553.833 307.807 551.521 304.152 547.733C299.573 543.021 297.283 537.153 297.283 530.129C297.283 523.105 299.573 517.192 304.152 512.392C307.719 508.693 312.1 506.403 317.296 505.522C318.001 505.39 318.639 505.544 319.212 505.984ZM339.952 512.392C344.531 517.192 346.821 523.105 346.821 530.129C346.821 537.153 344.531 543.021 339.952 547.733C336.297 551.521 331.916 553.833 326.808 554.67H326.411C325.883 554.67 325.377 554.493 324.892 554.141C324.364 553.657 324.1 553.062 324.1 552.358V547.403C324.1 546.831 324.265 546.335 324.595 545.917C324.925 545.498 325.377 545.223 325.949 545.091C328.767 544.519 331.167 543.197 333.149 541.128C335.835 538.265 337.178 534.577 337.178 530.063C337.178 525.549 335.835 521.882 333.149 519.064C331.167 516.95 328.767 515.607 325.949 515.034C325.377 514.902 324.925 514.627 324.595 514.209C324.265 513.79 324.1 513.295 324.1 512.722V507.768C324.1 507.019 324.375 506.425 324.925 505.984C325.476 505.544 326.103 505.39 326.808 505.522C332.004 506.403 336.385 508.693 339.952 512.392ZM405.924 505.456C406.54 505.456 407.08 505.687 407.542 506.149C408.004 506.612 408.235 507.151 408.235 507.768V552.027C408.235 552.644 408.004 553.183 407.542 553.646C407.08 554.108 406.54 554.339 405.924 554.339H400.904C400.243 554.339 399.693 554.108 399.252 553.646C398.812 553.183 398.592 552.644 398.592 552.027V522.169L386.373 537.891C385.888 538.463 385.272 538.75 384.523 538.75C384.171 538.75 383.819 538.672 383.466 538.518C383.114 538.364 382.85 538.133 382.674 537.825L361.009 509.155C360.745 508.847 360.591 508.462 360.547 507.999C360.503 507.537 360.591 507.118 360.811 506.744C361.031 506.37 361.317 506.061 361.669 505.819C362.022 505.577 362.418 505.456 362.858 505.456H368.671C369.419 505.456 370.036 505.764 370.52 506.381L384.523 524.877L398.196 506.381C398.68 505.764 399.319 505.456 400.111 505.456H405.924ZM367.878 537.494C368.495 537.494 369.034 537.715 369.496 538.155C369.959 538.595 370.19 539.146 370.19 539.806V552.027C370.19 552.644 369.959 553.183 369.496 553.646C369.034 554.108 368.495 554.339 367.878 554.339H362.858C362.242 554.339 361.702 554.108 361.24 553.646C360.778 553.183 360.547 552.644 360.547 552.027V539.806C360.547 539.146 360.778 538.595 361.24 538.155C361.702 537.715 362.242 537.494 362.858 537.494H367.878ZM443.89 505.984C444.418 506.425 444.682 507.019 444.682 507.768V512.722C444.682 513.295 444.517 513.79 444.187 514.209C443.857 514.627 443.405 514.902 442.833 515.034C440.015 515.607 437.615 516.95 435.633 519.064C432.947 521.882 431.604 525.549 431.604 530.063C431.604 534.577 432.947 538.265 435.633 541.128C437.615 543.197 440.015 544.519 442.833 545.091C443.405 545.223 443.857 545.498 444.187 545.917C444.517 546.335 444.682 546.831 444.682 547.403V552.358C444.682 553.062 444.418 553.657 443.89 554.141C443.405 554.493 442.899 554.67 442.371 554.67H441.974C436.866 553.833 432.485 551.521 428.83 547.733C424.251 543.021 421.961 537.153 421.961 530.129C421.961 523.105 424.251 517.192 428.83 512.392C432.397 508.693 436.778 506.403 441.974 505.522C442.679 505.39 443.317 505.544 443.89 505.984ZM464.63 512.392C469.209 517.192 471.499 523.105 471.499 530.129C471.499 537.153 469.209 543.021 464.63 547.733C460.975 551.521 456.594 553.833 451.486 554.67H451.089C450.561 554.67 450.055 554.493 449.57 554.141C449.042 553.657 448.778 553.062 448.778 552.358V547.403C448.778 546.831 448.943 546.335 449.273 545.917C449.603 545.498 450.055 545.223 450.627 545.091C453.445 544.519 455.845 543.197 457.827 541.128C460.513 538.265 461.856 534.577 461.856 530.063C461.856 525.549 460.513 521.882 457.827 519.064C455.845 516.95 453.445 515.607 450.627 515.034C450.055 514.902 449.603 514.627 449.273 514.209C448.943 513.79 448.778 513.295 448.778 512.722V507.768C448.778 507.019 449.053 506.425 449.603 505.984C450.154 505.544 450.781 505.39 451.486 505.522C456.682 506.403 461.063 508.693 464.63 512.392ZM545.384 505.456C546 505.456 546.54 505.687 547.002 506.149C547.465 506.612 547.696 507.151 547.696 507.768V552.027C547.696 552.644 547.465 553.183 547.002 553.646C546.54 554.108 546 554.339 545.384 554.339H539.571C538.779 554.339 538.14 554.031 537.656 553.415L505.357 509.155C505.093 508.803 504.939 508.406 504.895 507.966C504.851 507.526 504.928 507.107 505.126 506.711C505.324 506.315 505.61 506.006 505.984 505.786C506.359 505.566 506.766 505.456 507.206 505.456H513.019C513.371 505.456 513.723 505.533 514.076 505.687C514.428 505.841 514.692 506.072 514.868 506.381L538.052 537.891V507.768C538.052 507.151 538.272 506.612 538.713 506.149C539.153 505.687 539.704 505.456 540.364 505.456H545.384ZM512.226 537.494C512.843 537.494 513.382 537.715 513.845 538.155C514.307 538.595 514.538 539.146 514.538 539.806V552.027C514.538 552.644 514.307 553.183 513.845 553.646C513.382 554.108 512.843 554.339 512.226 554.339H507.206C506.59 554.339 506.05 554.108 505.588 553.646C505.126 553.183 504.895 552.644 504.895 552.027V539.806C504.895 539.146 505.126 538.595 505.588 538.155C506.05 537.715 506.59 537.494 507.206 537.494H512.226ZM583.35 505.984C583.879 506.425 584.143 507.019 584.143 507.768V512.722C584.143 513.295 583.978 513.79 583.647 514.209C583.317 514.627 582.866 514.902 582.293 515.034C579.475 515.607 577.075 516.95 575.094 519.064C572.408 521.882 571.065 525.549 571.065 530.063C571.065 534.577 572.408 538.265 575.094 541.128C577.075 543.197 579.475 544.519 582.293 545.091C582.866 545.223 583.317 545.498 583.647 545.917C583.978 546.335 584.143 546.831 584.143 547.403V552.358C584.143 553.062 583.879 553.657 583.35 554.141C582.866 554.493 582.359 554.67 581.831 554.67H581.435C576.327 553.833 571.945 551.521 568.29 547.733C563.711 543.021 561.421 537.153 561.421 530.129C561.421 523.105 563.711 517.192 568.29 512.392C571.857 508.693 576.239 506.403 581.435 505.522C582.139 505.39 582.778 505.544 583.35 505.984ZM604.09 512.392C608.67 517.192 610.959 523.105 610.959 530.129C610.959 537.153 608.67 543.021 604.09 547.733C600.435 551.521 596.054 553.833 590.946 554.67H590.55C590.021 554.67 589.515 554.493 589.031 554.141C588.502 553.657 588.238 553.062 588.238 552.358V547.403C588.238 546.831 588.403 546.335 588.733 545.917C589.064 545.498 589.515 545.223 590.087 545.091C592.906 544.519 595.305 543.197 597.287 541.128C599.973 538.265 601.316 534.577 601.316 530.063C601.316 525.549 599.973 521.882 597.287 519.064C595.305 516.95 592.906 515.607 590.087 515.034C589.515 514.902 589.064 514.627 588.733 514.209C588.403 513.79 588.238 513.295 588.238 512.722V507.768C588.238 507.019 588.513 506.425 589.064 505.984C589.614 505.544 590.241 505.39 590.946 505.522C596.142 506.403 600.523 508.693 604.09 512.392ZM665.901 506.513C666.385 507.173 666.473 507.9 666.165 508.693L648.067 553.415C647.891 553.855 647.605 554.207 647.208 554.471C646.812 554.736 646.372 554.868 645.887 554.868H640.075C639.59 554.868 639.15 554.736 638.754 554.471C638.357 554.207 638.071 553.855 637.895 553.415L619.797 508.693C619.445 507.944 619.511 507.217 619.995 506.513C620.48 505.808 621.118 505.456 621.911 505.456H643.972C644.588 505.456 645.128 505.687 645.59 506.149C646.052 506.612 646.284 507.173 646.284 507.834V512.656C646.284 513.317 646.052 513.878 645.59 514.341C645.128 514.803 644.588 515.034 643.972 515.034H632.875L642.981 540.467L656.257 506.909C656.433 506.469 656.72 506.116 657.116 505.852C657.512 505.588 657.953 505.456 658.437 505.456H663.985C664.382 505.456 664.756 505.555 665.108 505.753C665.46 505.951 665.725 506.205 665.901 506.513ZM694.752 545.289C695.28 545.465 695.699 545.763 696.007 546.181C696.315 546.599 696.469 547.073 696.469 547.601V552.688C696.469 553.392 696.183 553.987 695.611 554.471C695.17 554.824 694.686 555 694.157 555C693.937 555 693.783 554.978 693.695 554.934C689.6 554.141 686.077 552.247 683.127 549.253C679.164 545.201 677.182 539.872 677.182 533.267V507.834C677.182 507.173 677.413 506.612 677.876 506.149C678.338 505.687 678.878 505.456 679.494 505.456H684.58C685.241 505.456 685.802 505.687 686.264 506.149C686.727 506.612 686.958 507.173 686.958 507.834V533.399C686.958 537.582 688.147 540.775 690.525 542.977C691.758 544.122 693.167 544.893 694.752 545.289ZM717.54 505.456C718.2 505.456 718.761 505.687 719.224 506.149C719.686 506.612 719.917 507.173 719.917 507.834V533.267C719.917 539.872 717.936 545.201 713.973 549.253C711.022 552.247 707.5 554.141 703.405 554.934C703.317 554.978 703.162 555 702.942 555C702.414 555 701.929 554.824 701.489 554.471C700.917 554.031 700.63 553.415 700.63 552.622V547.535C700.63 547.051 700.785 546.599 701.093 546.181C701.401 545.763 701.819 545.465 702.348 545.289C704.021 544.805 705.43 544.034 706.575 542.977C708.953 540.863 710.142 537.671 710.142 533.399V507.834C710.142 507.173 710.373 506.612 710.835 506.149C711.298 505.687 711.859 505.456 712.52 505.456H717.54ZM768.188 529.964C770.081 531.153 771.523 532.606 772.514 534.324C773.505 536.041 774 537.957 774 540.071C774 545.047 772.107 548.856 768.32 551.499C765.766 553.348 762.309 554.516 757.95 555H757.685C757.069 555 756.563 554.802 756.166 554.405C755.638 553.921 755.374 553.348 755.374 552.688V547.932C755.374 547.359 755.572 546.853 755.968 546.412C756.364 545.972 756.849 545.708 757.421 545.62C759.491 545.399 761.098 544.915 762.243 544.166C763.124 543.638 763.718 542.955 764.026 542.118C764.202 541.634 764.29 541.018 764.29 540.269C764.29 539.784 764.202 539.366 764.026 539.014C763.85 538.661 763.542 538.331 763.102 538.023C761.825 537.142 760.173 536.393 758.148 535.777L757.091 535.447C754.889 534.83 752.864 534.324 751.014 533.927C750.618 533.839 749.979 533.685 749.099 533.465L748.372 533.267C746.787 532.87 745.114 532.32 743.352 531.615C740.754 530.514 738.619 529.127 736.945 527.453C735.008 525.516 734.039 522.961 734.039 519.791C734.039 515.431 735.712 511.886 739.059 509.155C741.349 507.217 744.563 505.984 748.702 505.456C749.407 505.368 750.012 505.566 750.519 506.05C751.025 506.535 751.278 507.107 751.278 507.768V512.524C751.278 513.097 751.102 513.603 750.75 514.044C750.398 514.484 749.946 514.737 749.396 514.803C748.846 514.869 748.284 514.99 747.712 515.167C746.435 515.651 745.532 516.124 745.004 516.587C744.475 517.049 744.101 517.523 743.881 518.007C743.661 518.756 743.55 519.46 743.55 520.121C743.55 520.473 743.749 520.848 744.145 521.244C744.761 521.86 745.664 522.411 746.853 522.895C747.381 523.116 748.306 523.446 749.627 523.886L757.884 525.934L758.28 526.066C760.349 526.639 761.847 527.079 762.771 527.387C764.841 528.092 766.646 528.951 768.188 529.964ZM757.157 515.034C756.629 514.902 756.199 514.627 755.869 514.209C755.539 513.79 755.374 513.295 755.374 512.722V507.9C755.374 507.195 755.66 506.601 756.232 506.116C756.452 505.896 756.739 505.753 757.091 505.687C757.443 505.621 757.773 505.61 758.082 505.654C761.957 506.271 765.105 507.592 767.527 509.618C770.83 512.348 772.591 515.827 772.811 520.055C772.855 520.671 772.646 521.233 772.184 521.739C771.721 522.246 771.16 522.499 770.499 522.499H765.347C764.775 522.499 764.268 522.301 763.828 521.904C763.388 521.508 763.146 521.024 763.102 520.451C762.925 519.306 762.551 518.359 761.979 517.611C761.054 516.51 759.623 515.673 757.685 515.1C757.553 515.1 757.465 515.078 757.421 515.034H757.157ZM749.429 545.355C749.957 545.443 750.398 545.708 750.75 546.148C751.102 546.588 751.278 547.073 751.278 547.601V552.49C751.278 553.194 751.014 553.789 750.486 554.273C750.045 554.626 749.539 554.802 748.967 554.802H748.636C744.541 554.185 741.173 552.842 738.531 550.772C735.096 548.042 733.158 544.232 732.718 539.344C732.63 538.639 732.828 538.034 733.313 537.527C733.797 537.021 734.369 536.768 735.03 536.768H740.248C740.864 536.768 741.393 536.977 741.833 537.395C742.273 537.814 742.516 538.331 742.56 538.948C742.692 541.15 743.771 542.845 745.796 544.034C746.721 544.563 747.932 545.003 749.429 545.355Z" fill="url(#paint1_linear)"/>
<defs>
<linearGradient id="paint0_linear" x1="0" y1="505.436" x2="774" y2="505.436" gradientUnits="userSpaceOnUse">
<stop stop-color="#8F5E25"/>
<stop offset="0.5" stop-color="#FBF4A1"/>
<stop offset="1" stop-color="#8F5E25"/>
</linearGradient>
<linearGradient id="paint1_linear" x1="0" y1="505.436" x2="774" y2="505.436" gradientUnits="userSpaceOnUse">
<stop stop-color="#8F5E25"/>
<stop offset="0.5" stop-color="#FBF4A1"/>
<stop offset="1" stop-color="#8F5E25"/>
</linearGradient>
</defs>
</svg>
